<svg id="svg" version="1.1" width="400" height="399.10112359550556" viewBox="0 0 400 399.10112359550556" xmlns="http://www.w3.org/2000/svg" xmlns:xlink="http://www.w3.org/1999/xlink" ><g id="svgg"><path id="path0" d="M27.319 30.468 C 27.221 30.727,27.187 107.914,27.243 201.996 L 27.345 373.054 198.708 373.054 L 370.071 373.054 370.063 201.827 C 370.059 107.652,370.011 30.566,369.958 30.524 C 369.462 30.132,27.468 30.076,27.319 30.468 M343.114 87.026 L 343.114 119.561 197.804 119.670 C 117.884 119.730,52.119 119.689,51.660 119.578 L 50.825 119.378 50.990 87.334 C 51.080 69.709,51.225 55.065,51.313 54.790 C 51.440 54.391,80.833 54.311,197.293 54.391 L 343.114 54.491 343.114 87.026 M343.213 182.435 L 343.312 218.164 342.215 218.809 C 341.611 219.165,339.411 220.493,337.325 221.761 C 335.240 223.029,332.725 224.519,331.737 225.073 C 330.749 225.626,329.222 226.494,328.343 227.001 C 327.082 227.730,318.481 232.025,310.180 236.071 L 309.182 236.557 309.077 250.814 C 308.977 264.449,309.004 265.070,309.709 265.070 C 310.410 265.070,315.769 262.995,319.860 261.139 C 320.903 260.666,322.610 259.901,323.653 259.440 C 325.591 258.581,334.900 253.953,339.920 251.352 C 341.457 250.556,342.849 249.903,343.014 249.902 C 343.179 249.901,343.313 271.727,343.313 298.403 L 343.313 346.906 312.475 346.900 C 295.514 346.897,281.413 346.752,281.139 346.578 C 280.745 346.328,280.620 331.886,280.540 277.422 L 280.439 208.583 267.465 208.583 L 254.491 208.583 254.291 277.645 L 254.092 346.707 218.758 346.809 L 183.424 346.910 181.376 343.615 C 180.249 341.802,178.881 339.511,178.336 338.523 C 177.790 337.535,176.675 335.559,175.857 334.132 C 174.433 331.647,169.430 321.530,167.764 317.764 C 167.327 316.776,166.331 314.531,165.551 312.774 C 163.275 307.652,158.347 294.529,156.856 289.621 C 156.656 288.962,156.239 287.615,155.930 286.627 C 155.062 283.851,154.801 283.895,165.469 285.023 C 182.410 286.815,205.726 286.937,220.559 285.312 L 224.950 284.830 225.055 271.502 L 225.161 258.173 222.461 258.426 C 206.760 259.898,178.082 259.434,163.074 257.465 C 151.911 256.000,144.697 254.781,134.731 252.674 C 133.196 252.349,123.233 249.808,120.758 249.110 C 120.100 248.924,118.483 248.481,117.166 248.127 C 111.056 246.481,94.218 240.440,87.729 237.565 C 86.688 237.104,85.756 236.727,85.657 236.727 C 84.692 236.727,68.299 228.476,62.757 225.201 C 61.595 224.514,60.563 223.952,60.465 223.952 C 60.199 223.952,52.609 219.117,51.796 218.431 C 51.097 217.840,50.644 147.493,51.335 146.802 C 51.465 146.672,117.169 146.597,197.343 146.636 L 343.114 146.707 343.213 182.435 M52.894 250.305 C 54.365 251.374,67.665 257.953,73.453 260.475 C 77.295 262.150,81.052 263.801,81.801 264.144 C 85.820 265.988,99.697 270.772,111.178 274.271 C 117.782 276.283,123.218 277.926,123.766 278.076 C 124.182 278.189,125.073 280.656,126.530 285.728 C 132.726 307.284,141.489 328.799,149.541 342.218 C 150.727 344.194,151.697 346.057,151.697 346.358 C 151.697 346.820,143.792 346.906,101.604 346.906 L 51.512 346.906 51.317 346.008 C 51.210 345.514,51.024 323.614,50.904 297.341 L 50.685 249.572 51.590 249.794 C 52.088 249.916,52.675 250.146,52.894 250.305 " stroke="none" fill="#ffffff" fill-rule="evenodd"></path><path id="path1" d="M0.000 199.601 L 0.000 399.202 200.000 399.202 L 400.000 399.202 400.000 199.601 L 400.000 0.000 200.000 0.000 L 0.000 0.000 0.000 199.601 M369.958 30.524 C 370.011 30.566,370.059 107.652,370.063 201.827 L 370.071 373.054 198.708 373.054 L 27.345 373.054 27.243 201.996 C 27.187 107.914,27.221 30.727,27.319 30.468 C 27.468 30.076,369.462 30.132,369.958 30.524 M51.313 54.790 C 51.225 55.065,51.080 69.709,50.990 87.334 L 50.825 119.378 51.660 119.578 C 52.119 119.689,117.884 119.730,197.804 119.670 L 343.114 119.561 343.114 87.026 L 343.114 54.491 197.293 54.391 C 80.833 54.311,51.440 54.391,51.313 54.790 M51.335 146.802 C 50.644 147.493,51.097 217.840,51.796 218.431 C 52.609 219.117,60.199 223.952,60.465 223.952 C 60.563 223.952,61.595 224.514,62.757 225.201 C 68.299 228.476,84.692 236.727,85.657 236.727 C 85.756 236.727,86.688 237.104,87.729 237.565 C 94.218 240.440,111.056 246.481,117.166 248.127 C 118.483 248.481,120.100 248.924,120.758 249.110 C 123.233 249.808,133.196 252.349,134.731 252.674 C 144.697 254.781,151.911 256.000,163.074 257.465 C 178.082 259.434,206.760 259.898,222.461 258.426 L 225.161 258.173 225.055 271.502 L 224.950 284.830 220.559 285.312 C 205.726 286.937,182.410 286.815,165.469 285.023 C 154.801 283.895,155.062 283.851,155.930 286.627 C 156.239 287.615,156.656 288.962,156.856 289.621 C 158.347 294.529,163.275 307.652,165.551 312.774 C 166.331 314.531,167.327 316.776,167.764 317.764 C 169.430 321.530,174.433 331.647,175.857 334.132 C 176.675 335.559,177.790 337.535,178.336 338.523 C 178.881 339.511,180.249 341.802,181.376 343.615 L 183.424 346.910 218.758 346.809 L 254.092 346.707 254.291 277.645 L 254.491 208.583 267.465 208.583 L 280.439 208.583 280.540 277.422 C 280.620 331.886,280.745 346.328,281.139 346.578 C 281.413 346.752,295.514 346.897,312.475 346.900 L 343.313 346.906 343.313 298.403 C 343.313 271.727,343.179 249.901,343.014 249.902 C 342.849 249.903,341.457 250.556,339.920 251.352 C 334.900 253.953,325.591 258.581,323.653 259.440 C 322.610 259.901,320.903 260.666,319.860 261.139 C 315.769 262.995,310.410 265.070,309.709 265.070 C 309.004 265.070,308.977 264.449,309.077 250.814 L 309.182 236.557 310.180 236.071 C 318.481 232.025,327.082 227.730,328.343 227.001 C 329.222 226.494,330.749 225.626,331.737 225.073 C 332.725 224.519,335.240 223.029,337.325 221.761 C 339.411 220.493,341.611 219.165,342.215 218.809 L 343.312 218.164 343.213 182.435 L 343.114 146.707 197.343 146.636 C 117.169 146.597,51.465 146.672,51.335 146.802 M50.904 297.341 C 51.024 323.614,51.210 345.514,51.317 346.008 L 51.512 346.906 101.604 346.906 C 143.792 346.906,151.697 346.820,151.697 346.358 C 151.697 346.057,150.727 344.194,149.541 342.218 C 141.489 328.799,132.726 307.284,126.530 285.728 C 125.073 280.656,124.182 278.189,123.766 278.076 C 123.218 277.926,117.782 276.283,111.178 274.271 C 99.697 270.772,85.820 265.988,81.801 264.144 C 81.052 263.801,77.295 262.150,73.453 260.475 C 67.665 257.953,54.365 251.374,52.894 250.305 C 52.675 250.146,52.088 249.916,51.590 249.794 L 50.685 249.572 50.904 297.341 " stroke="none" fill="#0A304E" fill-rule="evenodd"></path></g></svg>